<svg width="22" height="22" viewBox="0 0 22 22" fill="none" xmlns="http://www.w3.org/2000/svg">
<path d="M1 12.9189C1.90556 12.9189 2.77444 12.5589 3.41444 11.9189L5.25111 10.0822C5.89111 9.44222 6.76 9.08222 7.66556 9.08222C8.57111 9.08222 9.44 9.44222 10.08 10.0822L11.9167 11.9189C12.5567 12.5589 13.4256 12.9189 14.3311 12.9189C15.2367 12.9189 16.1056 12.5589 16.7456 11.9189L18.5822 10.0822C19.2222 9.44222 20.0911 9.08222 20.9967 9.08222M17.4444 21H4.55556C2.59222 21 1 19.4078 1 17.4444V4.55556C1 2.59222 2.59222 1 4.55556 1H17.4444C19.4078 1 21 2.59222 21 4.55556V17.4444C21 19.4078 19.4078 21 17.4444 21Z" stroke="#999999" stroke-linecap="round" stroke-linejoin="round"/>
</svg>
