<svg width="363" height="68" viewBox="0 0 363 68" fill="none" xmlns="http://www.w3.org/2000/svg">
<path d="M362.498 1.04251C362.522 0.767369 362.318 0.525289 362.043 0.501811L357.559 0.119205C357.284 0.0957264 357.042 0.29974 357.018 0.574883C356.995 0.850025 357.199 1.09211 357.474 1.11558L361.459 1.45568L361.119 5.44119C361.096 5.71634 361.3 5.95842 361.575 5.98189C361.85 6.00537 362.092 5.80136 362.116 5.52622L362.498 1.04251ZM0.870504 42.7312C1.67925 42.948 2.48874 43.164 3.29896 43.3792L3.55559 42.4126C2.74617 42.1977 1.93746 41.9819 1.1295 41.7653L0.870504 42.7312ZM6.21886 44.1498C7.84275 44.5758 9.46947 44.9981 11.0989 45.4167L11.3477 44.4481C9.71994 44.03 8.09487 43.6081 6.4726 43.1825L6.21886 44.1498ZM14.0267 46.1638C15.6519 46.5759 17.2798 46.984 18.9102 47.3881L19.1507 46.4174C17.5221 46.0138 15.896 45.6061 14.2724 45.1945L14.0267 46.1638ZM21.8475 48.1109C23.4772 48.509 25.1093 48.903 26.7437 49.2926L26.9755 48.3199C25.343 47.9307 23.7128 47.5372 22.0849 47.1395L21.8475 48.1109ZM29.684 49.9882C31.3189 50.3719 32.956 50.7512 34.5951 51.1258L34.8179 50.1509C33.1807 49.7767 31.5455 49.3979 29.9125 49.0146L29.684 49.9882ZM37.5416 51.7935C39.1788 52.1614 40.818 52.5246 42.4591 52.8828L42.6723 51.9058C41.0332 51.548 39.396 51.1853 37.7608 50.8178L37.5416 51.7935ZM45.4151 53.5221C47.0562 53.8738 48.6991 54.2205 50.3437 54.5619L50.547 53.5827C48.9045 53.2418 47.2637 52.8956 45.6246 52.5443L45.4151 53.5221ZM53.3043 55.1704C54.95 55.5052 56.5974 55.8347 58.2463 56.1587L58.4391 55.1775C56.7925 54.8539 55.1473 54.5249 53.5037 54.1904L53.3043 55.1704ZM61.2129 56.7352C62.8617 57.0521 64.5119 57.3634 66.1635 57.6688L66.3454 56.6855C64.6961 56.3805 63.0482 56.0697 61.4016 55.7532L61.2129 56.7352ZM69.1378 58.2123C70.7904 58.5106 72.4443 58.8029 74.0993 59.0892L74.2697 58.1038C72.6171 57.818 70.9657 57.5261 69.3154 57.2282L69.1378 58.2123ZM77.0792 59.5976C78.7354 59.8764 80.3927 60.149 82.0509 60.4151L82.2094 59.4277C80.5537 59.162 78.8989 58.8899 77.2452 58.6115L77.0792 59.5976ZM85.0374 60.8873C86.6971 61.1457 88.3577 61.3975 90.0191 61.6427L90.1651 60.6534C88.5064 60.4086 86.8484 60.1572 85.1913 59.8992L85.0374 60.8873ZM93.0105 62.0766C94.6739 62.3138 96.3381 62.5441 98.0028 62.7674L98.1358 61.7763C96.4738 61.5534 94.8124 61.3234 93.1516 61.0866L93.0105 62.0766ZM101 63.1617C102.666 63.3766 104.333 63.5842 105.999 63.7846L106.119 62.7917C104.455 62.5917 102.791 62.3844 101.128 62.1699L101 63.1617ZM109.004 64.1376C110.673 64.3293 112.342 64.5135 114.012 64.6901L114.117 63.6956C112.451 63.5194 110.784 63.3355 109.118 63.1441L109.004 64.1376ZM117.018 64.9995C118.691 65.1671 120.364 65.3269 122.037 65.4786L122.128 64.4827C120.458 64.3312 118.788 64.1718 117.118 64.0045L117.018 64.9995ZM125.049 65.7432C126.723 65.8854 128.397 66.0194 130.071 66.1452L130.146 65.148C128.475 65.0225 126.804 64.8887 125.134 64.7468L125.049 65.7432ZM133.089 66.3629C134.765 66.4788 136.442 66.5863 138.118 66.6852L138.176 65.6869C136.504 65.5882 134.831 65.481 133.158 65.3653L133.089 66.3629ZM141.134 66.8537C142.814 66.9423 144.493 67.0221 146.172 67.0929L146.214 66.0938C144.539 66.0231 142.863 65.9435 141.187 65.8551L141.134 66.8537ZM149.193 67.2106C150.873 67.2706 152.551 67.3215 154.229 67.3631L154.254 66.3634C152.58 66.3219 150.905 66.2711 149.229 66.2113L149.193 67.2106ZM157.255 67.4279C158.935 67.4582 160.615 67.4791 162.294 67.4903L162.3 66.4903C160.625 66.4791 158.95 66.4583 157.273 66.428L157.255 67.4279ZM165.316 67.5C166.998 67.4995 168.68 67.4892 170.36 67.4689L170.348 66.4689C168.671 66.4892 166.994 66.4995 165.316 66.5L165.316 67.5ZM173.383 67.4214C175.063 67.3889 176.743 67.3462 178.421 67.2932L178.389 66.2937C176.715 66.3466 175.04 66.3892 173.363 66.4216L173.383 67.4214ZM181.445 67.1863C183.125 67.1206 184.803 67.0444 186.479 66.9575L186.427 65.9588C184.755 66.0455 183.081 66.1215 181.406 66.1871L181.445 67.1863ZM189.499 66.7891C191.178 66.689 192.855 66.5779 194.531 66.4558L194.458 65.4584C192.787 65.5803 191.114 65.691 189.439 65.7909L189.499 66.7891ZM197.545 66.2238C199.221 66.0881 200.895 65.9411 202.568 65.7827L202.473 64.7871C200.806 64.9451 199.136 65.0917 197.465 65.2271L197.545 66.2238ZM205.579 65.4847C207.25 65.3123 208.92 65.1282 210.588 64.9324L210.471 63.9392C208.808 64.1345 207.143 64.318 205.476 64.49L205.579 65.4847ZM213.591 64.5664C215.26 64.3559 216.926 64.1334 218.59 63.8987L218.45 62.9085C216.791 63.1425 215.13 63.3644 213.466 63.5743L213.591 64.5664ZM221.582 63.4631C223.245 63.2134 224.905 62.9514 226.563 62.6769L226.4 61.6904C224.747 61.964 223.091 62.2252 221.434 62.4741L221.582 63.4631ZM229.546 62.1691C231.201 61.8793 232.854 61.577 234.504 61.2617L234.316 60.2795C232.671 60.5937 231.024 60.8952 229.373 61.184L229.546 62.1691ZM237.474 60.6798C239.122 60.3488 240.767 60.0048 242.409 59.6475L242.197 58.6704C240.56 59.0265 238.92 59.3694 237.277 59.6994L237.474 60.6798ZM245.362 58.9901C247.001 58.6169 248.637 58.2304 250.27 57.8304L250.032 56.8591C248.404 57.2579 246.774 57.6431 245.14 58.0151L245.362 58.9901ZM253.205 57.0956C254.833 56.6794 256.458 56.2494 258.08 55.8056L257.816 54.8411C256.2 55.2834 254.58 55.7119 252.957 56.1268L253.205 57.0956ZM260.993 54.9925C262.61 54.5323 264.223 54.0583 265.832 53.57L265.542 52.6131C263.938 53.0996 262.331 53.5721 260.72 54.0307L260.993 54.9925ZM268.724 52.6763C270.326 52.1721 271.924 51.6536 273.519 51.1208L273.202 50.1723C271.613 50.7033 270.02 51.2199 268.424 51.7224L268.724 52.6763ZM276.384 50.146C277.972 49.5966 279.556 49.0326 281.136 48.454L280.792 47.515C279.217 48.0916 277.639 48.6535 276.057 49.201L276.384 50.146ZM283.969 47.3987C285.541 46.8035 287.109 46.1937 288.673 45.5688L288.302 44.6402C286.743 45.2628 285.181 45.8705 283.615 46.4634L283.969 47.3987ZM291.476 44.4307C293.027 43.791 294.574 43.1364 296.117 42.4667L295.719 41.5494C294.182 42.2167 292.64 42.8689 291.095 43.5062L291.476 44.4307ZM298.889 41.2448C300.421 40.5594 301.948 39.8588 303.472 39.1429L303.046 38.2379C301.529 38.9511 300.007 39.6491 298.481 40.332L298.889 41.2448ZM306.201 37.8415C307.714 37.1093 309.223 36.3617 310.727 35.5986L310.275 34.7068C308.776 35.4671 307.273 36.2118 305.765 36.9413L306.201 37.8415ZM313.415 34.2162C314.901 33.4409 316.383 32.6502 317.86 31.8439L317.381 30.9662C315.909 31.7694 314.433 32.5572 312.952 33.3296L313.415 34.2162ZM320.514 30.3757C321.975 29.556 323.432 28.7208 324.885 27.8699L324.379 27.0071C322.932 27.8548 321.481 28.6869 320.025 29.5035L320.514 30.3757ZM327.484 26.3269C328.925 25.4603 330.362 24.578 331.793 23.6798L331.262 22.8328C329.836 23.7276 328.405 24.6066 326.969 25.4699L327.484 26.3269ZM334.341 22.0611C335.749 21.1549 337.153 20.2332 338.551 19.2957L337.994 18.4651C336.601 19.3991 335.203 20.3174 333.8 21.2201L334.341 22.0611ZM341.063 17.5911C342.443 16.6431 343.817 15.6795 345.187 14.7002L344.605 13.8868C343.241 14.8624 341.871 15.8224 340.496 16.7668L341.063 17.5911ZM347.635 12.9294C348.991 11.9361 350.343 10.9272 351.689 9.90241L351.084 9.1067C349.742 10.1277 348.396 11.1329 347.044 12.1225L347.635 12.9294ZM354.082 8.06C355.401 7.03281 356.715 5.99014 358.023 4.93185L357.394 4.15433C356.091 5.20878 354.782 6.24763 353.468 7.27106L354.082 8.06ZM360.373 3.01001C361.024 2.47139 361.674 1.92884 362.322 1.38233L361.678 0.617667C361.032 1.1622 360.384 1.7028 359.735 2.23947L360.373 3.01001Z" fill="#E5E5E5"/>
</svg>
