<svg width="74" height="66" viewBox="0 0 74 66" fill="none" xmlns="http://www.w3.org/2000/svg">
<path d="M12.64 65C19.012 58.808 27.632 55 37.092 55C46.46 55 54.988 58.732 61.356 64.808M4.9 53.1C2.46 48.244 1 42.808 1 37C1 17.104 17.104 1 37 1C56.896 1 73 17.104 73 37C73 42.8 71.548 48.24 69.092 53.092M45.4852 22.5147C50.1715 27.201 50.1715 34.799 45.4852 39.4853C40.7989 44.1716 33.2009 44.1716 28.5146 39.4853C23.8284 34.799 23.8284 27.201 28.5146 22.5147C33.2009 17.8284 40.7989 17.8284 45.4852 22.5147Z" stroke="#999999" stroke-linecap="round" stroke-linejoin="round"/>
</svg>
