<svg width="20" height="20" viewBox="0 0 20 20" fill="none" xmlns="http://www.w3.org/2000/svg">
<path d="M4.00001 13V15M12.5 13V15M15.4 11.296L17.517 10.729C18.585 10.443 19.218 9.34398 18.93 8.27698L17.369 2.47997C17.082 1.41596 15.988 0.783963 14.923 1.06796L4.88001 3.74397C3.81101 4.02897 3.177 5.12697 3.46401 6.19497L4.21701 8.99998M3 19H13.4C14.505 19 15.4 18.105 15.4 17V11C15.4 9.89498 14.505 8.99998 13.4 8.99998H3C1.895 8.99998 1 9.89498 1 11V17C1 18.105 1.895 19 3 19ZM9.31102 12.939C9.89702 13.525 9.89702 14.475 9.31102 15.06C8.72502 15.645 7.77501 15.646 7.19001 15.06C6.60401 14.474 6.60401 13.524 7.19001 12.939C7.77601 12.354 8.72502 12.354 9.31102 12.939Z" stroke="#999999" stroke-width="1.5" stroke-linecap="round" stroke-linejoin="round"/>
</svg>
