<svg width="22" height="22" viewBox="0 0 22 22" fill="none" xmlns="http://www.w3.org/2000/svg">
<path d="M4.88889 4.88889H7.82222M4.88889 8.77778H8.8M4.88889 12.6667H9.77778M17.1111 12.6667H13.6667M17.1111 8.77778H13.1111M10.0911 20.6867L13.4367 17.3411C13.9311 16.8467 14.1644 16.1478 14.0656 15.4556L12.2722 2.90778C12.1156 1.81333 11.1778 1 10.0722 1H3.22222C1.99444 1 1 1.99444 1 3.22222V14.3333C1 15.5611 1.99444 16.5556 3.22222 16.5556H13.9533M8.66667 16.5556L9.02889 19.0922C9.18444 20.1867 10.1222 21 11.2289 21H18.7778C20.0056 21 21 20.0056 21 18.7778V6.55556C21 5.32778 20.0056 4.33333 18.7778 4.33333H13.1111" stroke="#7FCC82" stroke-linecap="round" stroke-linejoin="round"/>
</svg>
