<svg width="22" height="22" viewBox="0 0 22 22" fill="none" xmlns="http://www.w3.org/2000/svg">
<path d="M12.1111 1H13.2222C14.45 1 15.4444 1.99444 15.4444 3.22222M15.4444 3.22222C15.4444 1.99444 16.4389 1 17.6667 1H18.7778M15.4444 3.22222V18.7778M15.4444 18.7778C15.4444 20.0056 16.4389 21 17.6667 21H18.7778M15.4444 18.7778C15.4444 20.0056 14.45 21 13.2222 21H12.1111M12.1111 12.1111L9.88889 9.88889M12.1111 9.88889L9.88889 12.1111M7.2 12.1111L4.97778 9.88889M7.2 9.88889L4.97778 12.1111M12.1111 16.5556H3.22222C1.99444 16.5556 1 15.5611 1 14.3333V7.66667C1 6.43889 1.99444 5.44444 3.22222 5.44444H12.1111M15.4444 16.5556H18.7778C20.0056 16.5556 21 15.5611 21 14.3333V7.66667C21 6.43889 20.0056 5.44444 18.7778 5.44444H15.4444" stroke="#999999" stroke-linecap="round" stroke-linejoin="round"/>
</svg>
