<svg width="22" height="22" viewBox="0 0 22 22" fill="none" xmlns="http://www.w3.org/2000/svg">
<path d="M13.0033 14.0515L10.4988 16.5559L8.9955 15.0526M7.66661 8.07146H6.5555C5.63549 8.07146 4.88883 8.81812 4.88883 9.73812V18.7781M14.3333 8.07146H15.4444C16.3644 8.07146 17.1111 8.81812 17.1111 9.73812V18.7781M18.0711 3.92927C21.9763 7.83452 21.9763 14.1662 18.0711 18.0714C14.1658 21.9766 7.83416 21.9766 3.92894 18.0714C0.0236878 14.1661 0.0236878 7.8345 3.92894 3.92927C7.83419 0.0240235 14.1658 0.0240235 18.0711 3.92927ZM13.1166 9.5859H8.88439C8.21105 9.5859 7.66661 9.04146 7.66661 8.36923V7.77257C7.66661 7.10034 8.21105 6.5559 8.88328 6.5559H13.1155C13.7888 6.5559 14.3333 7.10034 14.3333 7.77257V8.36812C14.3333 9.04146 13.7888 9.5859 13.1166 9.5859Z" stroke="#239C28" stroke-width="1.5" stroke-linecap="round" stroke-linejoin="round"/>
</svg>
