<svg width="22" height="22" viewBox="0 0 22 22" fill="none" xmlns="http://www.w3.org/2000/svg">
<path d="M8.77778 12.3033V17.3889L11 16.2778L13.2222 17.3889V12.3033M17.6667 21H4.33333C2.49222 21 1 19.5078 1 17.6667V4.33333C1 2.49222 2.49222 1 4.33333 1H17.6667C19.5078 1 21 2.49222 21 4.33333V17.6667C21 19.5078 19.5078 21 17.6667 21ZM15.1667 8.77778C15.1667 11.079 13.3012 12.9444 11 12.9444C8.69881 12.9444 6.83333 11.079 6.83333 8.77778C6.83333 6.47659 8.69881 4.61111 11 4.61111C13.3012 4.61111 15.1667 6.47659 15.1667 8.77778Z" stroke="#999999" stroke-linecap="round" stroke-linejoin="round"/>
</svg>
