<svg width="260" height="8" viewBox="0 0 260 8" fill="none" xmlns="http://www.w3.org/2000/svg">
<path d="M6.46447 1.53553L0 8H20L13.5355 1.53553C11.5829 -0.417088 8.41709 -0.417091 6.46447 1.53553Z" fill="white"/>
<path d="M26.4645 1.53553L20 8H40L33.5355 1.53553C31.5829 -0.417088 28.4171 -0.417091 26.4645 1.53553Z" fill="white"/>
<path d="M46.4645 1.53553L40 8H60L53.5355 1.53553C51.5829 -0.417088 48.4171 -0.417091 46.4645 1.53553Z" fill="white"/>
<path d="M66.4645 1.53553L60 8H80L73.5355 1.53553C71.5829 -0.417088 68.4171 -0.417091 66.4645 1.53553Z" fill="white"/>
<path d="M86.4645 1.53553L80 8H100L93.5355 1.53553C91.5829 -0.417088 88.4171 -0.417091 86.4645 1.53553Z" fill="white"/>
<path d="M106.464 1.53553L100 8H120L113.536 1.53553C111.583 -0.417088 108.417 -0.417091 106.464 1.53553Z" fill="white"/>
<path d="M126.464 1.53553L120 8H140L133.536 1.53553C131.583 -0.417088 128.417 -0.417091 126.464 1.53553Z" fill="white"/>
<path d="M146.464 1.53553L140 8H160L153.536 1.53553C151.583 -0.417088 148.417 -0.417091 146.464 1.53553Z" fill="white"/>
<path d="M166.464 1.53553L160 8H180L173.536 1.53553C171.583 -0.417088 168.417 -0.417091 166.464 1.53553Z" fill="white"/>
<path d="M186.464 1.53553L180 8H200L193.536 1.53553C191.583 -0.417088 188.417 -0.417091 186.464 1.53553Z" fill="white"/>
<path d="M206.464 1.53553L200 8H220L213.536 1.53553C211.583 -0.417088 208.417 -0.417091 206.464 1.53553Z" fill="white"/>
<path d="M226.464 1.53553L220 8H240L233.536 1.53553C231.583 -0.417088 228.417 -0.417091 226.464 1.53553Z" fill="white"/>
<path d="M246.464 1.53553L240 8H260L253.536 1.53553C251.583 -0.417088 248.417 -0.417091 246.464 1.53553Z" fill="white"/>
</svg>
