<svg width="23" height="18" viewBox="0 0 23 18" fill="none" xmlns="http://www.w3.org/2000/svg">
<path d="M18.8135 3.25V15.25M18.8135 3.25C18.8135 2.145 17.8941 1.25 16.76 1.25H6.24204C5.10693 1.25 4.18755 2.145 4.18755 3.25M18.8135 3.25H20.4591C21.3097 3.25 22 3.922 22 4.75V13.75C22 14.578 21.3097 15.25 20.4591 15.25H18.8135M18.8135 15.25C18.8135 16.355 17.8941 17.25 16.759 17.25H6.24204C5.10693 17.25 4.18755 16.355 4.18755 15.25M4.18755 15.25V3.25M4.18755 15.25H2.54087C1.69031 15.25 1 14.578 1 13.75V4.75C1 3.922 1.69031 3.25 2.54087 3.25H4.18755M10.8883 7.086L13.7348 8.725C14.1446 8.961 14.1446 9.539 13.7348 9.775L10.8883 11.414C10.4702 11.655 9.94321 11.361 9.94321 10.889V7.611C9.94321 7.138 10.4712 6.845 10.8883 7.086Z" stroke="#999999" stroke-linecap="round" stroke-linejoin="round"/>
</svg>
