<svg width="190" height="26" viewBox="0 0 190 26" fill="none" xmlns="http://www.w3.org/2000/svg">
<path d="M0 20.7282H6.87591C11.8102 20.7282 14.2774 18.6022 14.2774 15.2409V15.2122C14.2774 12.1956 11.8686 10.3282 8.9635 9.98343V9.94033C11.5182 9.48066 13.1679 7.52707 13.1679 5.07072V5.04199C13.1679 2.03978 10.7007 0 6.87591 0H0V20.7282ZM6.68613 1.03425C9.9708 1.03425 12 2.62873 12 5.12818V5.15691C12 7.87182 9.79562 9.55249 6.46715 9.55249H1.15328V1.03425H6.68613ZM6.67153 10.5724C10.5547 10.5724 13.0949 12.3105 13.0949 15.1834V15.2122C13.0949 17.9702 11.0365 19.6939 6.74453 19.6939H1.15328V10.5724H6.67153Z" fill="#ADC1AE"/>
<path d="M22.146 20.958C24.7883 20.958 26.6715 19.5359 27.3723 17.6254H27.4161V20.7282H28.5547V5.78895H27.4161V14.7094C27.4161 17.8122 25.4015 19.9525 22.4088 19.9525C19.5182 19.9525 17.781 18.2575 17.781 15.0541V5.78895H16.6569V15.1834C16.6569 18.832 18.7299 20.958 22.146 20.958Z" fill="#ADC1AE"/>
<path d="M38.073 26C41.9708 26 44.365 23.8166 44.365 20.3978V5.78895H43.2409V9.78232H43.1971C42.4963 7.39779 40.3796 5.54475 37.5912 5.54475C33.7956 5.54475 31.1679 8.63315 31.1679 13.2155V13.2442C31.1679 17.8552 33.781 20.9293 37.5766 20.9293C40.3796 20.9293 42.5401 19.105 43.1971 16.7635H43.2409V20.326C43.2409 23.1989 41.2993 24.9945 38.0876 24.9945C35.4307 24.9945 33.7518 23.8166 33.2117 22.4232L33.1679 22.3083H32L32.0292 22.4088C32.6423 24.3768 34.6715 26 38.073 26ZM37.7372 19.9238C34.4964 19.9238 32.3066 17.2519 32.3066 13.2442V13.2155C32.3066 9.23646 34.511 6.55028 37.7372 6.55028C40.9635 6.55028 43.2409 9.26519 43.2409 13.2155V13.2298C43.2409 17.2088 40.9781 19.9238 37.7372 19.9238Z" fill="#ADC1AE"/>
<path d="M48.4234 2.85856C48.9051 2.85856 49.3139 2.48508 49.3139 2.01105C49.3139 1.52265 48.9051 1.14917 48.4234 1.14917C47.9562 1.14917 47.5474 1.52265 47.5474 2.01105C47.5474 2.48508 47.9562 2.85856 48.4234 2.85856ZM47.8686 20.7282H48.9927V5.78895H47.8686V20.7282Z" fill="#ADC1AE"/>
<path d="M52.5109 20.7282H53.6496V11.8077C53.6496 8.70497 55.6642 6.56464 58.6569 6.56464C61.5474 6.56464 63.2701 8.25967 63.2701 11.463V20.7282H64.4088V11.3337C64.4088 7.68508 62.3358 5.55912 58.9197 5.55912C56.2774 5.55912 54.3796 6.98122 53.6788 8.89171H53.6496V5.78895H52.5109V20.7282Z" fill="#ADC1AE"/>
<path d="M69.0511 20.8862C69.5766 20.8862 70 20.4696 70 19.9525C70 19.4354 69.5766 19.0188 69.0511 19.0188C68.5256 19.0188 68.1022 19.4354 68.1022 19.9525C68.1022 20.4696 68.5256 20.8862 69.0511 20.8862Z" fill="#ADC1AE"/>
<path d="M75 20.7555H87.261V19.7055H76.1517V10.6295H86.7362V9.59384H76.1517V1.05H87.261V0H75V20.7555Z" fill="#66B169"/>
<path d="M95.6732 21C98.3557 21 100.499 19.3603 101.286 16.8719H101.359V20.7555H102.482V0H101.359V9.75205H101.315C100.572 7.20616 98.3849 5.55205 95.6732 5.55205C91.9263 5.55205 89.3021 8.63014 89.3021 13.2473V13.2616C89.3021 17.8932 91.9118 21 95.6732 21ZM95.8773 19.9931C92.6261 19.9931 90.4393 17.3034 90.4393 13.2616V13.2473C90.4393 9.24863 92.6261 6.5589 95.8627 6.5589C99.0555 6.5589 101.359 9.32055 101.359 13.276V13.2904C101.359 17.2315 99.0847 19.9931 95.8773 19.9931Z" fill="#66B169"/>
<path d="M111.375 20.9856C114.014 20.9856 115.894 19.5616 116.594 17.6486H116.638V20.7555H117.775V5.79658H116.638V14.7288C116.638 17.8356 114.626 19.9788 111.637 19.9788C108.751 19.9788 107.016 18.2815 107.016 15.074V5.79658H105.893V15.2034C105.893 18.8568 107.963 20.9856 111.375 20.9856Z" fill="#66B169"/>
<path d="M127.091 21C130.255 21 132.602 19.1301 133.112 16.426L133.127 16.2966H132.004L131.975 16.426C131.479 18.5548 129.599 19.9931 127.091 19.9931C123.723 19.9931 121.522 17.4329 121.522 13.276V13.2616C121.522 9.16233 123.694 6.5589 127.091 6.5589C129.642 6.5589 131.509 8.04041 131.99 10.126L132.019 10.2555H133.141L133.112 10.1116C132.646 7.5226 130.299 5.55205 127.091 5.55205C123.024 5.55205 120.385 8.54384 120.385 13.2616V13.276C120.385 18.0082 122.994 21 127.091 21Z" fill="#66B169"/>
<path d="M140.198 21C142.735 21 144.98 19.6192 145.738 17.6055H145.767V20.7555H146.904V10.6438C146.904 7.50822 144.834 5.55205 141.495 5.55205C138.259 5.55205 136.116 7.20616 135.751 9.93904L135.722 10.1116H136.815L136.845 9.95342C137.224 7.78151 138.944 6.5589 141.495 6.5589C144.178 6.5589 145.767 8.12671 145.767 10.7301V12.0678L140.548 12.4274C137.063 12.6863 135.183 14.1534 135.183 16.6993V16.7281C135.183 19.2596 137.238 21 140.198 21ZM136.334 16.7281V16.6993C136.334 14.7288 137.88 13.5637 140.708 13.3479L145.767 12.9884V15.2034C145.767 17.8788 143.347 19.9931 140.358 19.9931C138.011 19.9931 136.334 18.6555 136.334 16.7281Z" fill="#66B169"/>
<path d="M154.15 21C154.587 21 155.01 20.9568 155.273 20.8849V19.95C155.068 19.9932 154.733 20.0219 154.354 20.0219C152.852 20.0219 152.153 19.3171 152.153 17.5767V6.77466H155.273V5.79658H152.153V1.75479H150.986V5.79658H148.741V6.77466H150.986V17.6342C150.986 19.9356 152.021 21 154.15 21Z" fill="#66B169"/>
<path d="M158.67 2.86233C159.151 2.86233 159.559 2.48836 159.559 2.0137C159.559 1.52466 159.151 1.15068 158.67 1.15068C158.203 1.15068 157.795 1.52466 157.795 2.0137C157.795 2.48836 158.203 2.86233 158.67 2.86233ZM158.115 20.7555H159.238V5.79658H158.115V20.7555Z" fill="#66B169"/>
<path d="M168.744 21C172.767 21 175.508 18.037 175.508 13.276V13.2473C175.508 8.50068 172.753 5.55205 168.744 5.55205C164.72 5.55205 161.994 8.51507 161.994 13.2473V13.276C161.994 18.0226 164.705 20.9856 168.744 21ZM168.744 19.9931C165.376 19.9788 163.131 17.4185 163.131 13.276V13.2473C163.131 9.11918 165.376 6.5589 168.744 6.5589C172.097 6.5589 174.371 9.10479 174.371 13.2473V13.276C174.371 17.4185 172.111 19.9931 168.744 19.9931Z" fill="#66B169"/>
<path d="M178.118 20.7555H179.255V11.8233C179.255 8.71644 181.267 6.57329 184.256 6.57329C187.143 6.57329 188.863 8.27055 188.863 11.4781V20.7555H190V11.3486C190 7.69521 187.93 5.56644 184.518 5.56644C181.879 5.56644 179.984 6.99041 179.284 8.90343H179.255V5.79658H178.118V20.7555Z" fill="#66B169"/>
</svg>
