<?xml version="1.0" encoding="UTF-8"?> <svg xmlns="http://www.w3.org/2000/svg" width="411" height="142" viewBox="0 0 411 142" fill="none"> <path d="M162.842 70.8678L122.131 141.736H76.9278L85.9528 125.992H113.106L144.752 70.8678L113.106 15.744H67.8636L99.5099 70.8678L58.7995 141.736H40.7104L0 70.8678L31.6463 15.744L40.7104 31.4881L18.0892 70.8678L49.7745 125.992L81.4208 70.8678L40.7104 0H122.131L162.842 70.8678Z" fill="#267ED0"></path> <path d="M218.597 20.2984C218.597 15.0373 214.261 11.7786 208.478 11.7786H192.968V28.8182H208.556C214.339 28.779 218.597 25.5202 218.597 20.2984ZM178.395 62.1909V0H210.432C225.395 0 233.444 9.22655 233.444 20.2984C233.444 31.2917 225.2 40.6754 210.432 40.6754H192.929V62.2301H178.395V62.1909Z" fill="#EE7838"></path> <path d="M268.653 13.3465L258.455 40.0839H278.85L268.653 13.3465ZM286.625 62.1884L282.679 51.7054H254.627L250.524 62.1884H234.623L259.94 0.154541H277.365L302.526 62.1884H286.625Z" fill="#EE7838"></path> <path d="M326.704 62.1909V37.2203L302.324 0H317.679L333.424 25.2847L348.934 0H364.288L340.183 37.2203V62.1909H326.704Z" fill="#EE7838"></path> <path d="M217.347 122.966C217.347 119.001 214.495 115.664 209.182 115.664H191.835V130.308H209.182C214.261 130.191 217.347 127.403 217.347 122.966ZM216.097 97.2498C216.097 93.2843 213.245 90.4182 208.752 90.4182H191.913V104.081H208.752C213.245 104.042 216.097 101.254 216.097 97.2498ZM178.395 141.812V78.8359H211.643C223.598 78.8359 229.771 86.4527 229.771 94.8941C229.771 102.864 224.849 108.086 218.91 109.382C225.63 110.403 231.021 116.841 231.021 124.89C231.021 134.352 224.692 141.93 212.659 141.93H178.395V141.812Z" fill="#267ED0"></path> <path d="M348.742 141.812L333.309 118.726L317.721 141.812H302.132L324.519 109.5L303.499 78.8359H319.166L333.309 100.351L347.257 78.8359H363.158L342.1 109.421L364.487 141.812H348.742Z" fill="#267ED0"></path> <path d="M268.647 78.8359C251.34 78.8359 237.275 92.9702 237.275 110.363C237.275 127.756 251.34 141.891 268.647 141.891C285.994 141.891 300.02 127.756 300.02 110.363C300.02 92.9702 285.994 78.8359 268.647 78.8359ZM268.647 130.269C257.708 130.269 248.839 121.357 248.839 110.324C248.839 99.3307 257.708 90.3789 268.647 90.3789C279.587 90.3789 288.495 99.2914 288.495 110.324C288.495 121.357 279.587 130.269 268.647 130.269Z" fill="#267ED0"></path> <path d="M382.457 138.87C382.457 137.143 381.207 136.083 379.527 136.083C377.808 136.083 376.597 137.182 376.597 138.792C376.597 140.362 377.769 141.579 379.527 141.579C381.207 141.579 382.457 140.48 382.457 138.87ZM399.921 131.018V127.052H386.52C385.817 127.052 385.192 126.974 384.528 126.738C382.457 126.11 380.504 124.265 380.504 121.673C380.504 118.572 383.121 117.001 386.677 117.001H399.999V113.036H386.286C385.583 113.036 384.801 112.879 384.215 112.722C382.223 112.015 380.504 110.248 380.504 107.893C380.504 104.634 383.121 103.063 387.38 103.063H399.999V99.0979H386.911C379.175 99.0979 377.3 103.456 377.3 106.479C377.3 108.639 377.847 110.052 378.863 111.387C379.566 112.329 380.504 113.193 381.793 113.86V113.939C379.175 114.881 377.3 117.198 377.3 120.299C377.3 124.029 379.292 126.071 381.402 127.366V127.524L377.847 127.681V131.253C379.644 131.096 381.559 131.096 383.864 131.096L399.921 131.018ZM377.105 83.0397C377.105 89.2431 381.441 94.1509 388.943 94.1509C395.975 94.1509 400.39 89.4787 400.39 83.4324C400.39 78.0535 396.835 72.3212 388.552 72.3212C381.754 72.2427 377.105 76.5223 377.105 83.0397ZM380.191 83.1183C380.191 78.289 384.997 76.3652 388.708 76.3652C393.748 76.3652 397.382 79.3099 397.382 83.1968C397.382 87.1622 393.67 90.0284 388.865 90.0284C384.606 90.0284 380.191 87.869 380.191 83.1183ZM399.921 67.0994V63.0554H386.52C385.817 63.0554 385.192 62.9769 384.645 62.7413C382.34 62.0346 380.543 59.9537 380.543 57.2839C380.543 53.4755 383.551 52.1406 387.106 52.1406H399.96V48.0966H386.716C379.058 48.0966 377.261 52.9258 377.261 56.0275C377.261 59.7574 379.332 62.3094 381.441 63.4088V63.4873L377.73 63.7229V67.2957C379.527 67.1387 381.441 67.1387 383.746 67.1387L399.921 67.0994ZM389.49 23.4794C389.099 23.4009 388.474 23.3223 387.614 23.3223C383.512 23.3223 377.105 25.2069 377.105 32.5882C377.105 39.1056 382.379 43.0711 389.099 43.0711C395.819 43.0711 400.312 38.9486 400.312 32.0385C400.312 28.4657 399.609 25.9922 398.984 24.5787L396.053 25.2854C396.678 26.7774 397.225 28.5442 397.225 31.4888C397.225 35.5328 394.92 39.1056 389.49 39.1842V23.4794ZM386.559 39.1056C383.707 38.7915 379.996 36.9462 379.996 32.8237C379.996 28.2301 384.02 27.1307 386.559 27.2093V39.1056ZM377.652 21.2415L398.163 12.9965C398.632 12.8394 398.944 12.7609 399.179 12.7609C399.413 12.7609 399.726 12.9179 400.117 13.075C402.187 14.0173 403.75 15.3914 404.61 16.4908C405.625 17.6686 406.251 19.0428 406.602 20.0636L410.001 19.0428C409.845 18.022 409.142 16.0196 407.384 14.0565C405 11.2689 401.054 9.30583 393.397 6.36119L377.534 0.236328V4.51588L390.623 8.95248C392.185 9.50214 393.944 9.97329 395.272 10.3659V10.4837C393.944 10.8763 392.185 11.426 390.701 11.8971L377.534 16.8049L377.652 21.2415Z" fill="#EE7838"></path> </svg> 