<svg width="195" height="26" viewBox="0 0 195 26" fill="none" xmlns="http://www.w3.org/2000/svg">
<path d="M52.6644 21.0821H49.2461L56.1777 5.07617H62.9194C64.1538 5.07617 65.0084 5.17032 65.673 5.45278C66.3377 5.73524 66.7175 6.206 67.0024 6.77091C67.2873 7.33583 67.2873 8.1832 67.0974 9.03057C66.9074 9.87794 66.6226 10.6312 66.0529 11.3844C65.5781 12.1376 65.0084 12.7967 64.4387 13.2674C63.8689 13.7382 63.2992 14.1148 62.7295 14.3031C62.1598 14.5856 61.4001 14.6797 60.4506 14.868C59.8809 14.9622 58.9314 14.9622 57.4121 14.9622H55.2282L52.6644 21.0821ZM56.4626 12.3259H57.507C59.3112 12.3259 60.5456 12.2318 61.2102 12.0434C61.78 11.761 62.3497 11.3844 62.8244 10.9136C63.2992 10.4429 63.5841 9.9721 63.679 9.31303C63.774 8.93642 63.774 8.65396 63.5841 8.37151C63.3942 8.08905 63.2992 7.90074 62.9194 7.80659C62.6345 7.71244 61.9699 7.61829 60.8304 7.61829H58.3616L56.4626 12.3259Z" fill="#6CBBFF"/>
<path d="M74.5023 17.5043H67.9505L65.1969 21.0821H61.6836L74.5023 5.07617H78.3005L77.4459 21.0821H74.2175L74.5023 17.5043ZM74.6922 14.868L75.072 8.46566L69.6597 14.9622L74.6922 14.868Z" fill="#6CBBFF"/>
<path d="M86.0863 21.0821H82.668L85.3267 14.868L83.0478 5.07617H86.656L87.7005 9.59549C87.9854 10.7253 88.0803 11.4785 88.1753 11.9493C88.5551 11.4785 89.0299 11.0078 89.5046 10.4429L91.4986 8.27735L94.5372 5.07617H98.4302L88.745 15.1505L86.0863 21.0821Z" fill="#6CBBFF"/>
<path d="M96.6254 21.0821H93.207L100.139 5.07617H106.88C108.115 5.07617 108.969 5.17032 109.634 5.45278C110.299 5.73524 110.678 6.206 110.963 6.77091C111.248 7.42998 111.248 8.1832 111.058 9.03057C110.868 9.87794 110.584 10.6312 110.014 11.3844C109.539 12.1376 108.969 12.7967 108.4 13.2674C107.83 13.7382 107.26 14.1148 106.69 14.3031C106.121 14.5856 105.361 14.6797 104.412 14.868C103.842 14.9622 102.892 14.9622 101.373 14.9622H99.1891L96.6254 21.0821ZM100.329 12.3259H101.373C103.177 12.3259 104.412 12.2318 105.076 12.0434C105.741 11.8551 106.311 11.4785 106.69 11.0078C107.165 10.537 107.45 9.9721 107.545 9.40718C107.64 9.03057 107.64 8.74811 107.45 8.46566C107.355 8.1832 107.165 7.9949 106.785 7.90074C106.406 7.80659 105.836 7.71244 104.696 7.71244H102.228L100.329 12.3259Z" fill="#F6F9FD"/>
<path d="M110.964 14.7735C111.154 13.832 111.534 12.7963 112.009 11.7606C112.674 10.3484 113.528 9.12438 114.573 8.0887C115.617 7.05303 116.757 6.20566 118.086 5.64074C119.415 5.07583 120.84 4.69922 122.359 4.69922C124.353 4.69922 125.872 5.35829 126.917 6.58227C127.961 7.80625 128.151 9.40684 127.771 11.4782C127.391 13.1729 126.632 14.7735 125.492 16.3741C124.353 17.9747 122.929 19.1987 121.409 20.0461C119.795 20.8934 118.181 21.3642 116.377 21.3642C114.857 21.3642 113.623 20.9876 112.768 20.3285C111.914 19.6694 111.344 18.8221 111.059 17.7864C110.774 16.8449 110.774 15.8092 110.964 14.7735ZM114.383 14.7735C114.098 15.9034 114.288 16.7507 114.857 17.5039C115.427 18.2572 116.187 18.6338 117.326 18.6338C118.276 18.6338 119.225 18.3513 120.175 17.7864C121.124 17.2215 122.074 16.28 122.834 15.1501C123.688 13.9262 124.163 12.7963 124.448 11.6665C124.733 10.4425 124.543 9.40684 124.068 8.65362C123.498 7.9004 122.739 7.61794 121.599 7.61794C119.985 7.61794 118.466 8.37116 117.041 9.8776C115.617 11.2899 114.763 12.9846 114.383 14.7735Z" fill="#F6F9FD"/>
<path d="M128.058 15.9029L131.287 15.7146C131.097 16.7503 131.097 17.4094 131.382 17.6918C131.761 18.2568 132.616 18.5392 133.945 18.5392C135.085 18.5392 135.939 18.3509 136.509 17.9743C137.079 17.5977 137.459 17.1269 137.553 16.562C137.648 16.0913 137.553 15.7146 137.174 15.338C136.984 15.0556 136.224 14.679 135.085 14.2082C133.945 13.6433 133.091 13.1725 132.616 12.8901C132.141 12.5135 131.761 12.0427 131.571 11.4778C131.382 10.9129 131.382 10.2538 131.476 9.50059C131.761 8.18245 132.521 7.05263 133.755 6.1111C134.99 5.26373 136.509 4.79297 138.408 4.79297C140.307 4.79297 141.731 5.26373 142.586 6.1111C143.441 6.95847 143.82 8.18245 143.536 9.59474L140.212 9.68889C140.307 8.93567 140.117 8.37076 139.737 7.9C139.358 7.52339 138.693 7.24093 137.743 7.24093C136.794 7.24093 136.129 7.42923 135.654 7.71169C135.18 7.99415 134.895 8.46491 134.8 8.93567C134.705 9.40644 134.8 9.78304 135.085 10.0655C135.37 10.348 136.129 10.8187 137.269 11.2895C138.978 12.0427 140.022 12.7018 140.497 13.2667C141.067 14.0199 141.257 14.9614 141.067 16.0913C140.782 17.5035 139.927 18.7275 138.598 19.669C137.269 20.6106 135.559 21.1755 133.47 21.1755C132.046 21.1755 130.907 20.9872 129.957 20.5164C129.008 20.0457 128.438 19.3866 128.153 18.5392C127.868 17.8801 127.868 16.9386 128.058 15.9029Z" fill="#F6F9FD"/>
<path d="M148.948 21.0821H145.529L151.321 7.71244H146.479L147.618 5.07617H160.627L159.487 7.71244H154.74L148.948 21.0821Z" fill="#F6F9FD"/>
<path d="M155.501 18.0684H158.73L157.4 21.0812H154.172L155.501 18.0684Z" fill="#F6F9FD"/>
<path d="M160.535 21.0821L167.467 5.07617H170.885L167.942 11.8551L177.057 5.07617H181.615L172.784 11.3844L176.108 21.0821H172.309L169.936 13.4557L166.137 16.1862L164.048 21.0821H160.535Z" fill="#F6F9FD"/>
<path d="M176.77 21.0821L177.814 18.54L189.683 7.71244H181.992L183.131 5.07617H195.001L194.051 7.61829L182.087 18.54C183.131 18.54 183.701 18.54 183.891 18.54C184.651 18.54 185.6 18.54 186.835 18.54H190.728L189.588 21.1762L176.77 21.0821Z" fill="#F6F9FD"/>
<path d="M35.7975 12.8184C29.6255 13.854 23.4535 14.8897 19.1806 15.6429C14.9077 16.3962 12.7238 16.5845 10.5398 16.7728C8.54582 16.9611 6.45684 16.9611 4.46282 16.7728C2.94356 16.5845 1.4243 16.3962 0 16.0195C1.80412 16.8669 3.70319 17.526 5.69721 17.9967C8.54582 18.6558 11.4894 18.9383 14.4329 18.8441C17.4714 18.75 20.415 18.4675 23.4535 17.9967L28.4861 17.4318C27.7264 18.3734 27.2517 19.409 26.8718 20.5389C26.587 21.6687 26.6819 22.7985 27.0618 23.9283C27.3466 24.6816 27.8214 25.4348 28.4861 25.9997C28.8659 24.2108 29.4356 22.5161 30.1003 20.9155C30.8599 19.2207 31.8094 17.7143 32.9489 16.2078C33.8035 14.9839 34.753 13.854 35.7975 12.8184Z" fill="#F6F9FD"/>
<path d="M6.57362 13.1816C12.7456 12.146 18.9176 11.1103 23.1905 10.3571C27.4634 9.60385 29.6473 9.41554 31.8313 9.22724C33.8253 9.03893 35.9143 9.03893 37.9083 9.22724C39.4275 9.41554 40.9468 9.60385 42.3711 9.98046C40.567 9.13309 38.6679 8.47402 36.6739 8.00326C33.8253 7.34419 30.8817 7.06173 27.9382 7.15589C24.8996 7.25004 21.9561 7.5325 18.9176 8.00326L13.885 8.56817C14.6447 7.62665 15.1194 6.59097 15.4992 5.46114C15.7841 4.33131 15.6892 3.20149 15.3093 2.07166C15.0245 1.31844 14.5497 0.565217 13.885 0.000302718C13.5052 1.7892 12.9355 3.48394 12.2708 5.08453C11.5112 6.77927 10.5617 8.28571 9.42223 9.79215C8.56764 11.0161 7.61811 12.146 6.57362 13.1816Z" fill="#57B2FF"/>
</svg>
